<svg xmlns="http://www.w3.org/2000/svg" width="188.009" height="188.008" viewBox="0 0 188.009 188.008">
  <g id="Group_132" data-name="Group 132" transform="translate(-11120.75 2759.006)">
    <rect id="Rectangle_102" data-name="Rectangle 102" width="188.008" height="188.008" rx="48" transform="translate(11120.75 -2759.006)" fill="#bce7ff"/>
    <g id="Group_102" data-name="Group 102" transform="translate(11165.467 -2699.721)" style="isolation: isolate">
      <path id="Path_4" data-name="Path 4" d="M40.6,81.878H29.263a9.321,9.321,0,0,1-9.34-9.314V70.415a9.326,9.326,0,0,1,9.34-9.34H59.272l9.272,10.471c5.143,0,37.227-6.3,37.227-1.131v2.149c0,5.143-4.171,7.466-9.314,7.466H84.924c-5.143,0-9.628,6.019-9.628,11.188v70.061c0,.3-2.2-.531-2.258,0-.42,4.057-2.281,5.368-7.126,5.368l-6.134-.627c-5.143,0-7.139-1.4-7.139-6.544L50.579,91.918C50.579,86.749,45.741,81.878,40.6,81.878Z" transform="translate(-19.923 -61.075)" fill="#032e5c"/>
    </g>
    <g id="Group_103" data-name="Group 103" transform="translate(11195.737 -2699.721)" style="isolation: isolate">
      <path id="Path_5" data-name="Path 5" d="M31.188,61.075H79.345A10.08,10.08,0,0,1,89.4,71.157v.153A10.063,10.063,0,0,1,79.345,81.392h-22.8A10.085,10.085,0,0,0,46.464,91.474v4.862a10.085,10.085,0,0,0,10.082,10.082H76.5A10.069,10.069,0,0,1,86.586,116.5h0A10.063,10.063,0,0,1,76.5,126.555H56.546a10.1,10.1,0,0,0-10.082,10.082v23.9a10.058,10.058,0,0,1-10.056,10.056h-5.22a10.08,10.08,0,0,1-10.082-10.056V71.157A10.1,10.1,0,0,1,31.188,61.075Z" transform="translate(-21.106 -61.075)" fill="#d95c96"/>
    </g>
    <path id="Path_34" data-name="Path 34" d="M21.106,76.5a16.8,16.8,0,0,1,4.759-11.95,15.671,15.671,0,0,1,11.95-5.041A15.054,15.054,0,0,1,49.33,64.549,17.223,17.223,0,0,1,53.936,76.5c0,4.99-1.561,9.033-4.606,12.078a15.7,15.7,0,0,1-11.515,4.606,16.384,16.384,0,0,1-11.95-4.606C22.692,85.531,21.106,81.488,21.106,76.5Z" transform="translate(11174.632 -2799.325)" fill="#032e5c"/>
  </g>
</svg>
