<svg xmlns="http://www.w3.org/2000/svg" xmlns:xlink="http://www.w3.org/1999/xlink" width="697" height="245" viewBox="0 0 697 245">
  <defs>
    <clipPath id="clip-TAHERA_IDRIS_FAROOQUI_FOUNDATION_-Logo_-_2021_1">
      <rect width="697" height="245"/>
    </clipPath>
  </defs>
  <g id="TAHERA_IDRIS_FAROOQUI_FOUNDATION_-Logo_-_2021_1" data-name="TAHERA &amp; IDRIS FAROOQUI FOUNDATION -Logo - 2021 – 1" clip-path="url(#clip-TAHERA_IDRIS_FAROOQUI_FOUNDATION_-Logo_-_2021_1)">
    <g id="Group_127" data-name="Group 127" transform="translate(-256.5 -394.994)">
      <g id="Group_118" data-name="Group 118" transform="translate(-112.719 -762.7)">
        <path id="Path_37" data-name="Path 37" d="M-194.495-41.3v-4.76h-26.6V0h5.18V-20.79h17.5v-4.76h-17.5V-41.3Zm46.41,4.55a19.017,19.017,0,0,1,5.39,13.72,18.739,18.739,0,0,1-5.39,13.65,17.554,17.554,0,0,1-13.16,5.53A17.554,17.554,0,0,1-174.4-9.38a18.739,18.739,0,0,1-5.39-13.65,19.017,19.017,0,0,1,5.39-13.72,17.751,17.751,0,0,1,13.16-5.46A17.751,17.751,0,0,1-148.085-36.75Zm-30.1-3.43a23.547,23.547,0,0,0-6.86,17.15,23.547,23.547,0,0,0,6.86,17.15,22.749,22.749,0,0,0,16.94,6.93,22.905,22.905,0,0,0,17.01-6.93,23.489,23.489,0,0,0,6.79-17.15,23.489,23.489,0,0,0-6.79-17.15,22.905,22.905,0,0,0-17.01-6.93A22.749,22.749,0,0,0-178.185-40.18Zm81.55-5.88v29.47c0,4.13-1.19,7.28-3.5,9.45a12.069,12.069,0,0,1-8.54,3.29,12.069,12.069,0,0,1-8.54-3.29c-2.31-2.17-3.5-5.32-3.5-9.45V-46.06h-5.18v30.03q0,8.19,5.04,12.6a17.346,17.346,0,0,0,12.18,4.48,17.64,17.64,0,0,0,12.25-4.48c3.29-2.94,4.97-7.14,4.97-12.6V-46.06ZM-77.805,0h5.18V-37.03L-46.165,0h5.18V-46.06h-5.18V-9.45l-26.46-36.61h-5.18Zm66.08-41.37c5.81,0,10.29,1.82,13.58,5.39A18.767,18.767,0,0,1,6.685-23.1c.35,9.17-6.37,18.34-18.41,18.34h-9.73V-41.37ZM-26.635,0H-12c15.96,0,23.94-11.69,23.94-23.31A23.744,23.744,0,0,0,9.345-34.3c-3.43-6.72-11.13-11.76-21.21-11.76h-14.77Zm73.22-17.43H29.925l8.33-22.4Zm1.82,4.76L53.095,0h5.6L40.775-46.06h-4.9L17.885,0h5.6l4.69-12.67ZM80.535-41.3h16.31v-4.76h-37.8v4.76h16.31V0h5.18ZM106.995,0h5.18V-46.06h-5.18Zm54.39-36.75a19.017,19.017,0,0,1,5.39,13.72,18.739,18.739,0,0,1-5.39,13.65,17.554,17.554,0,0,1-13.16,5.53,17.554,17.554,0,0,1-13.16-5.53,18.739,18.739,0,0,1-5.39-13.65,19.017,19.017,0,0,1,5.39-13.72,17.751,17.751,0,0,1,13.16-5.46A17.751,17.751,0,0,1,161.385-36.75Zm-30.1-3.43a23.547,23.547,0,0,0-6.86,17.15,23.547,23.547,0,0,0,6.86,17.15,22.749,22.749,0,0,0,16.94,6.93,22.905,22.905,0,0,0,17.01-6.93,23.489,23.489,0,0,0,6.79-17.15,23.489,23.489,0,0,0-6.79-17.15,22.905,22.905,0,0,0-17.01-6.93A22.749,22.749,0,0,0,131.285-40.18ZM184.275,0h5.18V-37.03L215.915,0h5.18V-46.06h-5.18V-9.45l-26.46-36.61h-5.18Z" transform="translate(820 1373.694)" fill="#032e5c"/>
        <path id="Path_36" data-name="Path 36" d="M-210.035-23.12h18.1v-9.6h-18.1v-13.6h22.7v-9.6h-33.915V0h11.22Zm48.45,0,6.46-17.425,6.46,17.425ZM-140.08,0h12.155l-21.76-55.93H-160.4L-182.24,0h12.155l4.675-12.665h20.655Zm36.125-46.325h8.16c4.76,0,7.735,3.06,7.735,7.14,0,4.335-3.315,7.48-8.16,7.48h-7.735ZM-72.93,0-87.125-24.65a16.281,16.281,0,0,0,10.37-15.13,15.444,15.444,0,0,0-4.76-11.56c-3.145-3.06-7.48-4.59-12.92-4.59h-20.74V0h11.22V-22.1h5.185L-86.53,0Zm49.385-41.65c3.315,3.485,5.015,8.075,5.015,13.685,0,5.525-1.7,10.03-5.015,13.515a16.821,16.821,0,0,1-12.5,5.27,16.5,16.5,0,0,1-12.41-5.27q-5.1-5.227-5.1-13.515c0-5.61,1.7-10.2,5.015-13.685A16.485,16.485,0,0,1-36.04-46.835,16.485,16.485,0,0,1-23.545-41.65Zm-32.98-7.31a28.71,28.71,0,0,0-8.33,20.995c0,8.33,2.805,15.3,8.33,20.825A27.567,27.567,0,0,0-36.04,1.275,27.756,27.756,0,0,0-15.47-7.14c5.525-5.525,8.245-12.5,8.245-20.825,0-8.415-2.72-15.385-8.245-20.995a28.011,28.011,0,0,0-20.57-8.33A27.818,27.818,0,0,0-56.525-48.96Zm103.36,7.31c3.315,3.485,5.015,8.075,5.015,13.685,0,5.525-1.7,10.03-5.015,13.515a16.821,16.821,0,0,1-12.5,5.27,16.5,16.5,0,0,1-12.41-5.27q-5.1-5.227-5.1-13.515c0-5.61,1.7-10.2,5.015-13.685A16.485,16.485,0,0,1,34.34-46.835,16.485,16.485,0,0,1,46.835-41.65Zm-32.98-7.31a28.71,28.71,0,0,0-8.33,20.995c0,8.33,2.805,15.3,8.33,20.825A27.567,27.567,0,0,0,34.34,1.275,27.756,27.756,0,0,0,54.91-7.14c5.525-5.525,8.245-12.5,8.245-20.825,0-8.415-2.72-15.385-8.245-20.995a28.011,28.011,0,0,0-20.57-8.33A27.818,27.818,0,0,0,13.855-48.96ZM87.21-27.965c0-5.61,1.7-10.2,5.015-13.685a16.485,16.485,0,0,1,12.495-5.185,16.485,16.485,0,0,1,12.5,5.185c3.315,3.485,5.015,8.075,5.015,13.685,0,5.525-1.7,10.03-5.015,13.515a16.821,16.821,0,0,1-12.5,5.27,16.5,16.5,0,0,1-12.41-5.27Q87.21-19.677,87.21-27.965ZM120.53-3.23c8.075-5.185,13.005-14.195,13.005-24.735,0-8.415-2.72-15.385-8.245-20.995a28.011,28.011,0,0,0-20.57-8.33,27.818,27.818,0,0,0-20.485,8.33A28.71,28.71,0,0,0,75.9-27.965c0,8.33,2.805,15.3,8.33,20.825A27.567,27.567,0,0,0,104.72,1.275,25.39,25.39,0,0,0,110.585.68c3.825,7.225,10.965,11.73,17.85,13.685l4.25-10.71C126.99,2.21,122.91-.085,120.53-3.23Zm49.98,4.5a24.061,24.061,0,0,0,15.9-5.61q6.63-5.482,6.63-15.555V-55.93h-11.22v34.85c0,7.9-4.59,11.9-11.3,11.9-6.545,0-11.305-4.08-11.305-11.9V-55.93h-11.22v36.04c0,6.715,2.21,11.9,6.715,15.555A24,24,0,0,0,170.51,1.275ZM210.035,0h11.22V-55.93h-11.22Z" transform="translate(821 1302.694)" fill="#032e5c"/>
        <path id="Path_35" data-name="Path 35" d="M-208.808-29.975h11.33V-36.19H-227.4v6.215h11.33V0h7.26Zm26.9,15.015,4.18-11.275,4.18,11.275ZM-168,0h7.865l-14.08-36.19h-6.93L-195.278,0h7.865l3.025-8.2h13.365Zm17.765,0h7.205V-14.74h15.785V0h7.205V-36.19h-7.205v14.63h-15.785V-36.19h-7.205Zm65.34-29.975V-36.19h-21.945V0h22.385V-6.215H-99.577V-14.96h11.715v-6.215H-99.577v-8.8Zm19.8,0h5.28c3.08,0,5,1.98,5,4.62,0,2.805-2.145,4.84-5.28,4.84h-5ZM-45.018,0-54.2-15.95a10.535,10.535,0,0,0,6.71-9.79,9.993,9.993,0,0,0-3.08-7.48,11.507,11.507,0,0,0-8.36-2.97h-13.42V0h7.26V-14.3h3.355L-53.818,0Zm20.24-14.96,4.18-11.275,4.18,11.275ZM-10.862,0H-3l-14.08-36.19h-6.93L-38.142,0h7.865l3.025-8.2h13.365Zm45.65-5.225c-3.575,0-5.83-2.31-5.83-5.17a5.47,5.47,0,0,1,3.85-5.225l7.645,8.305A8.093,8.093,0,0,1,34.787-5.225Zm.88-25.9a3.293,3.293,0,0,1,3.355,3.465,5.478,5.478,0,0,1-3.74,5.005c-2.2-2.2-3.025-3.355-3.025-4.895A3.306,3.306,0,0,1,35.667-31.13Zm17.38,27.5-4.62-4.785a22.606,22.606,0,0,0,2.75-7.975l-5.5-1.1A16.32,16.32,0,0,1,44.3-13.035L38.857-18.81c4.345-1.815,6.6-5.445,6.6-9.185a8.771,8.771,0,0,0-2.695-6.435,9.751,9.751,0,0,0-7.2-2.695,10.164,10.164,0,0,0-7.26,2.64,8.878,8.878,0,0,0-2.805,6.765c0,3.3,1.32,5.335,3.905,8.25-4.84,1.54-7.37,5.335-7.37,9.515A10.082,10.082,0,0,0,25.382-2.42a12.052,12.052,0,0,0,8.8,3.245A14.231,14.231,0,0,0,44.192-3.08L47.877.825ZM80.272,0h7.26V-36.19h-7.26Zm33.275-29.975a10.188,10.188,0,0,1,8.14,3.41,12.638,12.638,0,0,1,2.86,8.47,12.674,12.674,0,0,1-2.915,8.47,10.462,10.462,0,0,1-8.305,3.41h-5.335v-23.76ZM100.732,0h11.99c6.16,0,11.385-2.365,14.465-5.94a19.368,19.368,0,0,0,4.675-12.54,17.734,17.734,0,0,0-4.9-12.43c-3.3-3.52-7.755-5.28-13.42-5.28H100.732Zm49.94-29.975h5.28c3.08,0,5,1.98,5,4.62,0,2.805-2.145,4.84-5.28,4.84h-5.005ZM170.748,0l-9.185-15.95a10.535,10.535,0,0,0,6.71-9.79,9.993,9.993,0,0,0-3.08-7.48,11.507,11.507,0,0,0-8.36-2.97h-13.42V0h7.26V-14.3h3.355L161.948,0Zm10.175,0h7.26V-36.19h-7.26Zm45.1-10.395c0-3.245-1.1-5.61-3.52-7.205a27.3,27.3,0,0,0-3.19-1.7c-.88-.385-2.145-.825-3.85-1.375a31.942,31.942,0,0,1-4.18-1.6c-2.145-.935-2.97-2.035-3.19-4.125,0-2.695,2.31-4.345,5.115-4.345a9.91,9.91,0,0,1,7.205,3.3l4.125-4.73a14.936,14.936,0,0,0-11.275-4.9,16.456,16.456,0,0,0-5.72.99,10.493,10.493,0,0,0-6.765,9.955,10.509,10.509,0,0,0,2.475,6.82,11.176,11.176,0,0,0,2.7,2.09,27.667,27.667,0,0,0,6.1,2.64,34.36,34.36,0,0,1,3.795,1.485c1.705.825,2.75,1.87,2.75,3.465,0,2.365-2.31,3.8-5.39,3.8a12.488,12.488,0,0,1-9.35-4.4l-4.4,5.225A18.533,18.533,0,0,0,212.878.77a14.911,14.911,0,0,0,9.3-2.97A9.751,9.751,0,0,0,226.023-10.395Z" transform="translate(821 1223.694)" fill="#032e5c"/>
      </g>
      <g id="Group_119" data-name="Group 119" transform="translate(-10846.25 3183.006)">
        <rect id="Rectangle_102" data-name="Rectangle 102" width="188.008" height="188.008" rx="48" transform="translate(11120.75 -2759.006)" fill="#bce7ff"/>
        <g id="Group_102" data-name="Group 102" transform="translate(11165.467 -2699.721)" style="isolation: isolate">
          <path id="Path_4" data-name="Path 4" d="M40.6,81.878H29.263a9.321,9.321,0,0,1-9.34-9.314V70.415a9.326,9.326,0,0,1,9.34-9.34H59.272l9.272,10.471c5.143,0,37.227-6.3,37.227-1.131v2.149c0,5.143-4.171,7.466-9.314,7.466H84.924c-5.143,0-9.628,6.019-9.628,11.188v70.061c0,.3-2.2-.531-2.258,0-.42,4.057-2.281,5.368-7.126,5.368l-6.134-.627c-5.143,0-7.139-1.4-7.139-6.544L50.579,91.918C50.579,86.749,45.741,81.878,40.6,81.878Z" transform="translate(-19.923 -61.075)" fill="#032e5c"/>
        </g>
        <g id="Group_103" data-name="Group 103" transform="translate(11195.737 -2699.721)" style="isolation: isolate">
          <path id="Path_5" data-name="Path 5" d="M31.188,61.075H79.345A10.08,10.08,0,0,1,89.4,71.157v.153A10.063,10.063,0,0,1,79.345,81.392h-22.8A10.085,10.085,0,0,0,46.464,91.474v4.862a10.085,10.085,0,0,0,10.082,10.082H76.5A10.069,10.069,0,0,1,86.586,116.5h0A10.063,10.063,0,0,1,76.5,126.555H56.546a10.1,10.1,0,0,0-10.082,10.082v23.9a10.058,10.058,0,0,1-10.056,10.056h-5.22a10.08,10.08,0,0,1-10.082-10.056V71.157A10.1,10.1,0,0,1,31.188,61.075Z" transform="translate(-21.106 -61.075)" fill="#d95c96"/>
        </g>
        <path id="Path_34" data-name="Path 34" d="M21.106,76.5a16.8,16.8,0,0,1,4.759-11.95,15.671,15.671,0,0,1,11.95-5.041A15.054,15.054,0,0,1,49.33,64.549,17.223,17.223,0,0,1,53.936,76.5c0,4.99-1.561,9.033-4.606,12.078a15.7,15.7,0,0,1-11.515,4.606,16.384,16.384,0,0,1-11.95-4.606C22.692,85.531,21.106,81.488,21.106,76.5Z" transform="translate(11174.632 -2799.325)" fill="#032e5c"/>
      </g>
    </g>
  </g>
</svg>
